<svg id="Layer_1" data-name="Layer 1" xmlns="http://www.w3.org/2000/svg" xmlns:xlink="http://www.w3.org/1999/xlink" viewBox="0 0 1920 1080"><defs><style>.cls-1{fill:url(#linear-gradient);}.cls-2{fill:url(#linear-gradient-2);}.cls-3,.cls-4{opacity:0.2;}.cls-3{fill:url(#linear-gradient-3);}.cls-4{fill:url(#linear-gradient-4);}.cls-5{fill:url(#linear-gradient-5);}.cls-11,.cls-6{opacity:0.02;}.cls-16,.cls-7,.cls-8{fill:none;}.cls-7{stroke:#000;stroke-miterlimit:10;}.cls-7,.cls-8{stroke-width:18px;}.cls-8{stroke-linecap:round;stroke-linejoin:round;opacity:0.75;stroke:url(#linear-gradient-6);}.cls-10,.cls-11,.cls-13,.cls-9{fill:#fff;}.cls-9{opacity:0.05;}.cls-10{opacity:0.04;}.cls-12{fill:url(#linear-gradient-7);}.cls-14{fill:url(#linear-gradient-8);}.cls-15{fill:url(#linear-gradient-9);}</style><linearGradient id="linear-gradient" y1="540" x2="1920" y2="540" gradientUnits="userSpaceOnUse"><stop offset="0" stop-color="#0f0f26"/><stop offset="1" stop-color="#190d26"/></linearGradient><linearGradient id="linear-gradient-2" x1="1972.39" y1="52.39" x2="803.9" y2="1220.89" gradientUnits="userSpaceOnUse"><stop offset="0" stop-color="#66f"/><stop offset="1" stop-color="#639"/></linearGradient><linearGradient id="linear-gradient-3" x2="1064" xlink:href="#linear-gradient"/><linearGradient id="linear-gradient-4" x2="1156.58" xlink:href="#linear-gradient"/><linearGradient id="linear-gradient-5" x2="1049.57" xlink:href="#linear-gradient"/><linearGradient id="linear-gradient-6" x1="1217.91" y1="596.6" x2="1652.73" y2="596.6" xlink:href="#linear-gradient-2"/><linearGradient id="linear-gradient-7" x1="1304.91" y1="294.19" x2="1224.29" y2="433.82" gradientUnits="userSpaceOnUse"><stop offset="0" stop-color="#f093fb"/><stop offset="1" stop-color="#f5576c"/></linearGradient><linearGradient id="linear-gradient-8" x1="1621.9" y1="246.01" x2="1565.05" y2="344.47" gradientTransform="translate(33.68 -103.55)" xlink:href="#linear-gradient-7"/><linearGradient id="linear-gradient-9" x1="1243.48" y1="902.36" x2="1199.68" y2="978.22" gradientTransform="translate(166.29 -127.91)" xlink:href="#linear-gradient-7"/></defs><title>landing_page</title><rect id="bg" class="cls-1" width="1920" height="1080"/><path id="bg_bright" data-name="bg bright" class="cls-2" d="M1049.57,0c-31.88,35.18-60.42,88.68-77.48,169.61-58.5,277.49,13.5,354,13.5,559.47,0,205.79-185.87,305.45-322.58,350.92H1920V0Z"/><g id="wave"><path id="wave-2" data-name="wave" class="cls-3" d="M1007,729.08c0-205.49-79-282-20.48-559.47C1003.58,88.68,1032.12,35.18,1064,0H0V1080H678C814.71,1034.53,1007,934.87,1007,729.08Z"/><path id="wave-3" data-name="wave" class="cls-4" d="M998,727c0-205.49-31.55-349.38,9-500,28-104,90.61-193.39,149.58-227H0V1080H678C814.71,1034.53,998,932.79,998,727Z"/><path id="wave-4" data-name="wave" class="cls-5" d="M985.59,729.08c0-205.49-72-282-13.5-559.47C989.15,88.68,1017.69,35.18,1049.57,0H0V1080H663C799.72,1034.53,985.59,934.87,985.59,729.08Z"/></g><g id="map" class="cls-6"><line class="cls-7" x1="988.3" y1="481.33" x2="1920" y2="242"/><line class="cls-7" x1="1290.2" y1="666.44" x2="1920" y2="504.66"/><line class="cls-7" x1="1514.73" x2="1791.61" y2="1077.87"/><line class="cls-7" x1="1119.01" x2="1396.43" y2="1080"/><line class="cls-7" x1="735.26" y1="1080" x2="1920" y2="775.67"/><line class="cls-7" x1="1392.45" y1="1064.5" x2="1763.68" y2="969.14"/></g><polyline id="route" class="cls-8" points="1643.73 312.97 1226.91 420.04 1345.12 880.23"/><g id="splash"><circle class="cls-9" cx="1273.03" cy="461.54" r="132.12"/><circle class="cls-10" cx="1273.03" cy="461.54" r="216.33"/><circle class="cls-11" cx="1273.03" cy="461.54" r="307.67"/></g><g id="pin"><path class="cls-12" d="M1329.58,341.1c0,31.23-45.93,120.44-56.55,120.44s-56.55-89.21-56.55-120.44a56.55,56.55,0,1,1,113.1,0Z"/><circle class="cls-13" cx="1273.03" cy="341.1" r="41.74"/></g><g id="pin-2" data-name="pin"><path class="cls-14" d="M1673,175.54c0,22-32.38,84.93-39.87,84.93s-39.88-62.91-39.88-84.93a39.88,39.88,0,1,1,79.75,0Z"/><circle class="cls-13" cx="1633.1" cy="175.54" r="29.43"/></g><g id="pin-3" data-name="pin"><path class="cls-15" d="M1423.17,799.93c0,17-25,65.44-30.72,65.44s-30.72-48.47-30.72-65.44a30.72,30.72,0,1,1,61.44,0Z"/><circle class="cls-13" cx="1392.45" cy="799.93" r="22.67"/></g><rect id="clip" class="cls-16" width="1920" height="1080"/></svg>